<svg width="24" height="24" viewBox="0 0 24 24" fill="none" xmlns="http://www.w3.org/2000/svg">
<path d="M4.23748 3.59253C4.10024 3.60589 3.96972 3.65837 3.86143 3.74373C3.75315 3.8291 3.67165 3.94377 3.62663 4.0741C3.5816 4.20443 3.57495 4.34495 3.60745 4.47895C3.63995 4.61296 3.71025 4.73481 3.80998 4.83003L10.98 12L3.80998 19.17C3.74301 19.237 3.68988 19.3165 3.65363 19.404C3.61739 19.4915 3.59873 19.5853 3.59873 19.68C3.59873 19.7747 3.61739 19.8685 3.65363 19.956C3.68988 20.0435 3.74301 20.1231 3.80998 20.19C3.87696 20.257 3.95647 20.3101 4.04397 20.3464C4.13148 20.3826 4.22527 20.4013 4.31998 20.4013C4.4147 20.4013 4.50849 20.3826 4.59599 20.3464C4.6835 20.3101 4.76301 20.257 4.82998 20.19L12 13.02L19.17 20.19C19.237 20.257 19.3165 20.3101 19.404 20.3464C19.4915 20.3826 19.5853 20.4013 19.68 20.4013C19.7747 20.4013 19.8685 20.3826 19.956 20.3464C20.0435 20.3101 20.123 20.257 20.19 20.19C20.257 20.1231 20.3101 20.0435 20.3463 19.956C20.3826 19.8685 20.4012 19.7747 20.4012 19.68C20.4012 19.5853 20.3826 19.4915 20.3463 19.404C20.3101 19.3165 20.257 19.237 20.19 19.17L13.02 12L20.19 4.83003C20.2947 4.72888 20.3662 4.59837 20.3953 4.45572C20.4243 4.31307 20.4094 4.16497 20.3525 4.03096C20.2957 3.89694 20.1995 3.78331 20.0768 3.70504C19.9541 3.62677 19.8105 3.58754 19.665 3.59253C19.478 3.59798 19.3005 3.67598 19.17 3.81003L12 10.98L4.82998 3.81003C4.76268 3.74097 4.68219 3.68614 4.5933 3.64877C4.5044 3.61141 4.40891 3.59229 4.31248 3.59253C4.2875 3.59123 4.26246 3.59123 4.23748 3.59253Z" fill="#2F80ED"/>
</svg>
